<?xml version="1.0" standalone="no"?><!DOCTYPE svg PUBLIC "-//W3C//DTD SVG 1.1//EN" "http://www.w3.org/Graphics/SVG/1.1/DTD/svg11.dtd"><svg class="icon" style="width: 5em; height: 5em;vertical-align: middle;fill: currentColor;overflow: hidden;" viewBox="0 0 1024 1024" version="1.1" xmlns="http://www.w3.org/2000/svg"><path d="M811.579 484.059c-6.656-6.622-15.327-9.933-24.064-9.933s-17.543 3.38-24.201 10.069l-221.771 221.589v-602.965c0-18.877-15.292-34.133-34.133-34.133s-34.135 15.257-34.135 34.133v601.293l-219.989-219.908c-6.689-6.623-15.394-9.967-24.132-9.967-8.772 0-17.511 3.344-24.166 10.034-13.345 13.347-13.312 34.953 0.034 48.265l276.618 276.402c3.483 3.481 7.578 5.973 11.878 7.611 4.267 1.913 8.909 3.072 13.892 3.072 1.195 0 2.219-0.58 3.413-0.683 8.841 0.068 17.715-3.21 24.508-10.035l276.384-276.578c13.312-13.345 13.278-34.987-0.135-48.265zM917.932 921.099c0 18.843-15.257 34.134-34.132 34.134h-750.933c-18.843 0-34.133-15.29-34.133-34.132s15.291-34.133 34.133-34.133h750.933c18.876 0 34.133 15.29 34.133 34.131z" /></svg>