<?xml version="1.0" standalone="no"?><!DOCTYPE svg PUBLIC "-//W3C//DTD SVG 1.1//EN" "http://www.w3.org/Graphics/SVG/1.1/DTD/svg11.dtd"><svg class="icon" style="width: 5em; height: 5em;vertical-align: middle;fill: currentColor;overflow: hidden;" viewBox="0 0 1024 1024" version="1.1" xmlns="http://www.w3.org/2000/svg"><path fill="#06579F" d="M155.504 713.504l170.496 0-93.008-263.504L155.504 713.504zM124.496 837.504 62.736 978.72C63.936 992.944 79.584 1008 93.504 1008l325.504 0-62-170.496L124.496 837.504zM961.504 651.504 961.504 294.048 682.496 16 93.504 16C79.648 16 62.992 32.784 62.496 47.008l0 558 108.496-325.504 139.504 0L558.496 1008l170.496 0L728.992 744.496l-77.504 0 0-77.504L442.416 666.992l-5.28-15.504 214.368 0 0-77.504 77.504 0L729.008 62.496l15.504 15.504 0 496 77.504 0 0 77.504L961.504 651.504zM930.496 1008c14.72 0 31.008-17.008 31.008-31.008L961.504 667.008l-139.504 0 0 77.504-77.504 0L744.496 1008 930.496 1008zM62.496 979.248l0.224-0.528c-0.048-0.576-0.224-1.152-0.224-1.728L62.496 979.248zM806.496 589.504l-62 0 0 62 62 0L806.496 589.504zM667.008 651.504l62 0 0-62-62 0L667.008 651.504zM806.496 667.008l-62 0 0 62 62 0L806.496 667.008zM667.008 667.008l0 62 62 0 0-62L667.008 667.008zM744.496 744.496l-15.504 0 0 0L744.496 744.496 744.496 744.496zM744.496 728.992 744.496 728.992l-15.504 0 0 0L744.496 728.992zM728.992 589.504 728.992 589.504l15.504 0 0 0L728.992 589.504z" /></svg>