<?xml version="1.0" standalone="no"?><!DOCTYPE svg PUBLIC "-//W3C//DTD SVG 1.1//EN" "http://www.w3.org/Graphics/SVG/1.1/DTD/svg11.dtd"><svg t="1642730862309" class="icon" viewBox="0 0 1024 1024" version="1.1" xmlns="http://www.w3.org/2000/svg" p-id="2408" width="200" height="200"><path d="M57.6 89.6h915.2c19.2 0 38.4 19.2 38.4 38.4v659.2c0 19.2-19.2 38.4-38.4 38.4H550.4V876.8h211.2c12.8 0 25.6 12.8 25.6 25.6s-12.8 25.6-25.6 25.6H262.4c-12.8 0-25.6-12.8-25.6-25.6s12.8-25.6 25.6-25.6h211.2V825.6H57.6c-19.2 0-38.4-19.2-38.4-38.4V128c0-25.6 12.8-38.4 38.4-38.4zM864 640c-19.2 0-38.4 19.2-38.4 38.4s19.2 38.4 38.4 38.4 38.4-19.2 38.4-38.4c0-25.6-19.2-38.4-38.4-38.4z m70.4-473.6H96v582.4h838.4V166.4z" fill="" p-id="2409"></path></svg>