<?xml version="1.0" standalone="no"?><!DOCTYPE svg PUBLIC "-//W3C//DTD SVG 1.1//EN" "http://www.w3.org/Graphics/SVG/1.1/DTD/svg11.dtd"><svg class="icon" style="width: 5em; height: 5em;vertical-align: middle;fill: currentColor;overflow: hidden;" viewBox="0 0 1024 1024" version="1.1" xmlns="http://www.w3.org/2000/svg"><path fill="#35B3EB" d="m843.16305,134.34797l-658.08806,0c-41.96258,0 -75.94896,38.92588 -75.94896,86.95066l0,579.78059c0,48.02478 33.98735,86.98583 75.94896,86.98583l658.08806,0c41.93187,0 75.94896,-38.96105 75.94896,-86.98583l0,-579.78059c-0.03071,-48.02478 -34.04781,-86.95066 -75.94896,-86.95066l0,0zm12.64808,577.99884l-158.87409,-242.61899c0,0 -9.22382,-19.62342 -41.64971,-19.62342c-36.79067,0 -47.85235,19.01668 -47.85235,19.01668l-139.15387,246.00553c0,0 -7.56927,16.4831 -26.13976,16.4831c-19.43903,0 -28.72235,-16.4831 -28.72235,-16.4831l-73.17731,-95.79675c0,0 -18.75091,-28.43763 -43.11327,-28.43763c-24.26543,0 -44.42137,31.46584 -44.42137,31.46584l-80.31087,114.60128l0,-500.10641c0,-15.98628 11.33999,-29.0081 25.32784,-29.0081l632.79477,0c13.98593,0 25.324,13.02292 25.324,29.0081l0,475.49058l-0.02975,0l-0.00192,0.0033zm-379.74481,-317.08092c0,56.73017 -40.12472,102.68412 -89.62586,102.68412s-89.65561,-45.99132 -89.65561,-102.68412c0,-56.65433 40.15543,-102.64235 89.65561,-102.64235c49.5021,0.03517 89.62586,45.98912 89.62586,102.64235l0,0zm0,0z" /></svg>