<?xml version="1.0" standalone="no"?><!DOCTYPE svg PUBLIC "-//W3C//DTD SVG 1.1//EN" "http://www.w3.org/Graphics/SVG/1.1/DTD/svg11.dtd"><svg t="1643088935609" class="icon" viewBox="0 0 1024 1024" version="1.1" xmlns="http://www.w3.org/2000/svg" p-id="7282" width="200" height="200"><path d="M721.8 326.1c0-124.4-100.8-225.2-225.2-225.2S271.3 201.7 271.3 326.1c0 82.2 44 154.1 109.8 193.4-14.1 4.2-28.1 9.2-41.8 15-46.9 19.8-89.1 48.3-125.3 84.4s-64.6 78.3-84.4 125.3c-20.6 48.6-31 100.2-31 153.4 0 13.3 10.7 24 24 24s24-10.7 24-24c0-190.8 155.3-346.1 346.1-346.1 1 0 1.9-0.1 2.9-0.2h1c124.3 0.1 225.2-100.8 225.2-225.2z m-402.5 0c0-47.3 18.4-91.9 51.9-125.3 33.5-33.5 78-51.9 125.3-51.9s91.9 18.4 125.3 51.9c33.5 33.5 51.9 78 51.9 125.3s-18.4 91.9-51.9 125.3-78 51.9-125.3 51.9-91.9-18.4-125.3-51.9c-33.5-33.4-51.9-77.9-51.9-125.3zM905.3 679.7h-32.2v-18c0-76.6-62.4-139-139-139s-139 62.4-139 139v18h-23.8c-13.3 0-24 10.7-24 24v144.5c0 41.1 33.4 74.5 74.5 74.5h233c41.1 0 74.5-33.4 74.5-74.5V703.7c0-13.3-10.7-24-24-24z m-262.2-18c0-50.2 40.8-91 91-91s91 40.8 91 91v18h-182v-18z m238.2 186.4c0 14.6-11.9 26.5-26.5 26.5h-233c-14.6 0-26.5-11.9-26.5-26.5V727.7h286v120.4z" fill="#bfcbd9" p-id="7283"></path><path d="M782.3 754.1h-88c-8.3 0-15 6.7-15 15s6.7 15 15 15h29v48.4c0 8.3 6.7 15 15 15s15-6.7 15-15v-48.4h29c8.3 0 15-6.7 15-15s-6.7-15-15-15z" fill="#bfcbd9" p-id="7284"></path></svg>