<?xml version="1.0" standalone="no"?><!DOCTYPE svg PUBLIC "-//W3C//DTD SVG 1.1//EN" "http://www.w3.org/Graphics/SVG/1.1/DTD/svg11.dtd"><svg class="icon" width="200px" height="200.00px" viewBox="0 0 1024 1024" version="1.1" xmlns="http://www.w3.org/2000/svg"><path fill="#C43E1C" d="M600.536234 317.792024c-11.89262-3.148277-33.860117-4.73122-65.904448-4.73122h-136.545987v189.704707h138.00566c45.629468 0 78.041652-8.49389 97.218942-25.489497 19.17729-16.991694 28.768871-40.322988 28.768871-71.152228 0-22.329481-5.644983-40.933468-16.932994-56.831385s-26.158677-26.397391-44.606131-31.496464l-0.003913-0.003913zM821.338245 118.458559H205.847208c-48.359018 0-87.926732 39.567714-87.926732 87.926732V821.878285c0 48.353148 39.567714 87.922819 87.926732 87.922819h615.491037c48.357061 0 87.926732-39.569671 87.926732-87.922819V206.385291c-0.001957-48.359018-39.569671-87.926732-87.926732-87.926732z m-139.099436 400.723386c-28.892141 31.439721-81.080355 47.155668-156.57247 47.155668h-127.58641v217.017818H334.590008V249.547402h201.358614c35.439147 0 44.840931 1.08008 62.572245 3.649184 31.347757 5.298653 37.176668 7.826667 65.428978 25.743864 20.296504 14.98024 33.214417 30.087664 44.021088 52.176474 10.798844 22.090767 17.58652 46.367131 17.58652 72.825179 0 45.396624-14.442157 83.809905-43.332341 115.245712l0.013697-0.00587z"  /></svg>